<?xml version="1.0" encoding="utf-8"?>
<!-- Generator: Adobe Illustrator 25.2.3, SVG Export Plug-In . SVG Version: 6.00 Build 0)  -->
<svg version="1.1" id="Ebene_1" xmlns="http://www.w3.org/2000/svg" xmlns:xlink="http://www.w3.org/1999/xlink" x="0px" y="0px"
	 viewBox="0 0 77.59 48.69" style="enable-background:new 0 0 77.59 48.69;" xml:space="preserve">
<style type="text/css">
	.st0{fill:none;stroke:#538D8D;stroke-width:3;stroke-linecap:round;}
	.st1{fill:#FFACDF;stroke:#538D8D;stroke-width:3;stroke-linejoin:round;stroke-miterlimit:10;}
</style>
<g>
	<path id="Pfad_1_1_" class="st0" d="M63.21,5.89c0,0,12.69,3.71,12.88,17.88c0.18,14.17-12.88,19.01-12.88,19.01"/>
	<path id="Pfad_2_1_" class="st0" d="M56.75,15.09c0,0,6.37,1.86,6.46,8.97c0.09,7.11-6.46,9.53-6.46,9.53"/>
	<path class="st1" d="M36.67,2.66L8.53,18.92c-3.21,2.42-3.21,7.41,0,9.83l28.13,17.28c3.84,2.89,9.21,0.03,9.21-4.91V7.57
		C45.87,2.63,40.51-0.24,36.67,2.66z"/>
	<path class="st1" d="M11.7,14.94l-9.2,7.28c-1.33,1.05-1.33,3.21,0,4.26l9.2,7.28c1.59,1.26,3.81,0.01,3.81-2.13V17.07
		C15.51,14.92,13.29,13.68,11.7,14.94z"/>
</g>
</svg>
