<?xml version="1.0" encoding="utf-8"?>
<!-- Generator: Adobe Illustrator 25.2.3, SVG Export Plug-In . SVG Version: 6.00 Build 0)  -->
<svg version="1.1" id="Ebene_1" xmlns="http://www.w3.org/2000/svg" xmlns:xlink="http://www.w3.org/1999/xlink" x="0px" y="0px"
	 viewBox="0 0 77.59 48.69" style="enable-background:new 0 0 77.59 48.69;" xml:space="preserve">
<style type="text/css">
	.st0{fill:#FFACDF;stroke:#538D8D;stroke-width:3;stroke-linejoin:round;stroke-miterlimit:10;}
	.st1{fill:none;stroke:#538D8D;stroke-width:3;stroke-linecap:round;}
</style>
<path class="st0" d="M36.67,2.66L8.53,18.92c-3.21,2.42-3.21,7.41,0,9.83l28.13,17.28c3.84,2.89,9.21,0.03,9.21-4.91V7.57
	C45.87,2.63,40.51-0.24,36.67,2.66z"/>
<path class="st0" d="M11.7,14.94l-9.2,7.28c-1.33,1.05-1.33,3.21,0,4.26l9.2,7.28c1.59,1.26,3.81,0.01,3.81-2.13V17.07
	C15.51,14.92,13.29,13.68,11.7,14.94z"/>
<g>
	<line class="st1" x1="56.93" y1="14.81" x2="75.99" y2="33.87"/>
	<line class="st1" x1="75.99" y1="14.81" x2="56.93" y2="33.87"/>
</g>
</svg>
